<svg xmlns="http://www.w3.org/2000/svg" width="240" height="240" viewBox="0 0 48 48"><linearGradient id="a" x1="9.703" x2="16.585" y1="26.119" y2="37.59" gradientUnits="userSpaceOnUse"><stop offset="0" stop-color="#1784d8"/><stop offset="1" stop-color="#0864c5"/></linearGradient><path fill="url(#a)" d="M20 25.026 5.011 25l.001 11.002a2 2 0 0 0 1.726 1.981L20 39.818V25.026z"/><linearGradient id="b" x1="24.604" x2="44.545" y1="27.13" y2="40.895" gradientUnits="userSpaceOnUse"><stop offset="0" stop-color="#31abec"/><stop offset="1" stop-color="#1582d5"/></linearGradient><path fill="url(#b)" d="M22 25.03v15.065l18.722 2.59a2 2 0 0 0 2.274-1.981L43 25.066l-21-.036z"/><linearGradient id="c" x1="8.142" x2="25.788" y1="11.699" y2="27.581" gradientUnits="userSpaceOnUse"><stop offset="0" stop-color="#31abec"/><stop offset="1" stop-color="#1582d5"/></linearGradient><path fill="url(#c)" d="m20 8.256-13.278 1.88a2 2 0 0 0-1.72 1.982L5.014 23H20V8.256z"/><linearGradient id="d" x1="25.913" x2="56.031" y1="10.147" y2="30.618" gradientUnits="userSpaceOnUse"><stop offset="0" stop-color="#54daff"/><stop offset="1" stop-color="#25a2e5"/></linearGradient><path fill="url(#d)" d="M22 7.973V23h20.995V7.303a2 2 0 0 0-2.28-1.98L22 7.973z"/></svg>
